<svg width="359" height="333" viewBox="0 0 359 333" fill="none" xmlns="http://www.w3.org/2000/svg">
<path d="M187.38 117.21H43.9171C37.4023 117.21 32.1211 111.928 32.1211 105.414V11.8038C32.1211 5.28898 37.4023 0.0078125 43.9171 0.0078125H187.38C193.894 0.0078125 199.175 5.28898 199.175 11.8038V105.414C199.175 111.928 193.894 117.21 187.38 117.21Z" fill="#F5F5F5"/>
<path d="M199.176 16.0451V8.59501C199.176 3.84598 195.33 0 190.581 0H40.7083C35.9593 0 32.1133 3.84598 32.1133 8.59501V16.0451H199.176Z" fill="#D6D6D6"/>
<path d="M42.3135 8.70779C42.3135 9.94947 41.3057 10.9573 40.064 10.9573C38.8223 10.9573 37.8145 9.94947 37.8145 8.70779C37.8145 7.46611 38.8223 6.45825 40.064 6.45825C41.3057 6.45825 42.3135 7.46611 42.3135 8.70779Z" fill="#F5F5F5"/>
<path d="M50.5284 8.70779C50.5284 9.94947 49.5205 10.9573 48.2788 10.9573C47.0372 10.9573 46.0293 9.94947 46.0293 8.70779C46.0293 7.46611 47.0372 6.45825 48.2788 6.45825C49.5205 6.45825 50.5284 7.46611 50.5284 8.70779Z" fill="#F5F5F5"/>
<path d="M59.1475 8.70779C59.1475 9.94947 58.1397 10.9573 56.898 10.9573C55.6563 10.9573 54.6484 9.94947 54.6484 8.70779C54.6484 7.46611 55.6563 6.45825 56.898 6.45825C58.1397 6.45825 59.1475 7.46611 59.1475 8.70779Z" fill="#F5F5F5"/>
<path d="M165.916 10.9573H75.7163C74.4747 10.9573 73.4668 9.94947 73.4668 8.70779C73.4668 7.46611 74.4747 6.45825 75.7163 6.45825H165.924C167.165 6.45825 168.173 7.46611 168.173 8.70779C168.165 9.94947 167.157 10.9573 165.916 10.9573Z" fill="#F5F5F5"/>
<path d="M42.3125 0.314453H191.822C195.886 0.314453 199.175 3.6041 199.175 7.66778V108.615" stroke="#262626" stroke-width="0.4147" stroke-miterlimit="10" stroke-linecap="round" stroke-linejoin="round"/>
<path d="M69.5901 46.6034C68.6468 46.9662 68.1711 48.0224 68.5339 48.9658L85.8449 94.3436C86.2077 95.2869 87.2639 95.7626 88.2073 95.3998L121.257 82.7895C122.2 82.4267 122.676 81.3704 122.313 80.4271L107.848 42.5236L94.8108 36.9763L69.5901 46.6034Z" fill="#F5F5F5"/>
<path d="M99.4386 45.7404L107.848 42.5314L94.8105 36.9841L97.8906 45.0551C98.1325 45.6678 98.8259 45.9742 99.4386 45.7404Z" fill="#D6D6D6"/>
<path d="M94.8203 36.9763L97.9003 45.0472C98.1342 45.6681 98.8276 45.9745 99.4484 45.7406L107.858 42.5316" stroke="#262626" stroke-width="0.274" stroke-miterlimit="10" stroke-linecap="round" stroke-linejoin="round"/>
<path d="M94.3269 70.3322C93.8835 69.1793 93.6174 68.2117 93.5287 67.4377C93.432 66.6637 93.5287 65.8896 93.819 65.1075C93.9802 64.6399 94.1979 64.2125 94.4721 63.8175C94.7462 63.4224 94.9881 63.0192 95.1897 62.6161C95.3912 62.2129 95.5364 61.7937 95.617 61.3583C95.6976 60.9229 95.6331 60.423 95.4154 59.8505C95.0526 58.8911 94.5285 58.3186 93.8512 58.1412C93.1739 57.9638 92.4725 58.0122 91.7549 58.2863C90.7148 58.6814 90.1101 59.2458 89.9407 59.9715C89.7714 60.6971 89.8198 61.5679 90.0939 62.5919L86.3044 64.0352C85.9416 63.0757 85.7642 62.1404 85.7803 61.2373C85.7964 60.3343 85.9899 59.4958 86.3528 58.7298C86.7237 57.9638 87.2558 57.2704 87.9573 56.6657C88.6587 56.061 89.4973 55.5692 90.481 55.1983C92.5934 54.392 94.4318 54.1823 95.9879 54.5774C97.544 54.9725 98.6889 56.1416 99.4307 58.0767C99.6726 58.7056 99.8177 59.2781 99.8661 59.7941C99.9145 60.3101 99.8903 60.81 99.7774 61.2938C99.6646 61.7695 99.4872 62.2533 99.2453 62.729C99.0034 63.2047 98.7131 63.7046 98.3745 64.2367C98.0681 64.7366 97.8423 65.172 97.6811 65.559C97.5279 65.9461 97.4392 66.3169 97.4231 66.6878C97.407 67.0507 97.4392 67.4135 97.536 67.7763C97.6246 68.1311 97.7537 68.5262 97.923 68.9616L94.3269 70.3322ZM96.3749 76.0488L94.9075 72.1948L98.8744 70.6789L100.342 74.533L96.3749 76.0488Z" fill="#D6D6D6"/>
<path d="M69.5901 46.6034C68.6468 46.9662 68.1711 48.0224 68.5339 48.9658L85.8449 94.3436C86.2077 95.2869 87.2639 95.7626 88.2073 95.3998L121.257 82.7895C122.2 82.4267 122.676 81.3704 122.313 80.4271L107.848 42.5236L94.8108 36.9763L69.5901 46.6034Z" stroke="#262626" stroke-width="0.274" stroke-miterlimit="10" stroke-linecap="round" stroke-linejoin="round"/>
<path d="M124.206 34.2512C123.271 33.8642 122.199 34.2996 121.812 35.2349L103.049 80.0321C102.662 80.9674 103.098 82.0398 104.033 82.4268L136.655 96.0934C137.591 96.4804 138.663 96.045 139.05 95.1097L154.724 57.69L149.112 44.6846L124.206 34.2512Z" fill="#F5F5F5"/>
<path d="M146.419 54.2154L154.724 57.6904L149.112 44.6851L145.774 52.6512C145.524 53.2559 145.807 53.9573 146.419 54.2154Z" fill="#D6D6D6"/>
<path d="M149.112 44.6851L145.774 52.6512C145.516 53.2639 145.806 53.9654 146.419 54.2154L154.724 57.6904" stroke="#262626" stroke-width="0.274" stroke-miterlimit="10" stroke-linecap="round" stroke-linejoin="round"/>
<path d="M125.754 68.4863C126.23 67.3414 126.706 66.4625 127.173 65.8417C127.641 65.2208 128.246 64.7209 128.988 64.3501C129.423 64.1243 129.874 63.963 130.35 63.8663C130.826 63.7695 131.269 63.6486 131.697 63.4954C132.124 63.3422 132.519 63.1406 132.874 62.8826C133.229 62.6246 133.527 62.2134 133.761 61.649C134.156 60.6976 134.172 59.9316 133.809 59.335C133.446 58.7383 132.906 58.2948 132.189 57.9885C131.165 57.5611 130.334 57.545 129.713 57.9562C129.084 58.3674 128.52 59.0286 128.02 59.9558L124.279 58.3916C124.674 57.4402 125.19 56.65 125.827 56.005C126.464 55.36 127.173 54.8843 127.972 54.5859C128.77 54.2795 129.633 54.1586 130.552 54.1989C131.479 54.2473 132.422 54.4731 133.39 54.8762C135.478 55.755 136.946 56.8677 137.8 58.2223C138.655 59.5768 138.679 61.2136 137.873 63.1326C137.615 63.7534 137.325 64.2694 137.002 64.6806C136.68 65.0918 136.317 65.4305 135.905 65.7046C135.494 65.9787 135.035 66.1964 134.535 66.3738C134.027 66.5512 133.47 66.7125 132.866 66.8657C132.301 67.0189 131.834 67.1801 131.455 67.3494C131.076 67.5188 130.753 67.7365 130.487 67.9864C130.221 68.2364 129.995 68.5266 129.818 68.8491C129.641 69.1716 129.455 69.5425 129.278 69.9699L125.754 68.4863ZM123.287 74.0416L124.875 70.244L128.794 71.8888L127.206 75.6864L123.287 74.0416Z" fill="#D6D6D6"/>
<path d="M124.206 34.2512C123.271 33.8642 122.199 34.2996 121.812 35.2349L103.049 80.0321C102.662 80.9674 103.098 82.0398 104.033 82.4268L136.655 96.0934C137.591 96.4804 138.663 96.045 139.05 95.1097L154.724 57.69L149.112 44.6846L124.206 34.2512Z" stroke="#262626" stroke-width="0.274" stroke-miterlimit="10" stroke-linecap="round" stroke-linejoin="round"/>
<path d="M140.946 165.272H49.9004V268.501H140.946V165.272Z" fill="#F5F5F5"/>
<path d="M142.721 165.272H48.1277C45.6846 165.272 43.7012 163.289 43.7012 160.846C43.7012 158.403 45.6846 156.419 48.1277 156.419H142.721C145.164 156.419 147.148 158.403 147.148 160.846C147.148 163.297 145.164 165.272 142.721 165.272Z" fill="#D6D6D6"/>
<path opacity="0.5" d="M133.489 175.109H57.3516V201.652H133.489V175.109Z" fill="#D6D6D6"/>
<path opacity="0.5" d="M133.489 237.854H57.3516V264.397H133.489V237.854Z" fill="#D6D6D6"/>
<path opacity="0.5" d="M133.489 206.482H57.3516V233.025H133.489V206.482Z" fill="#D6D6D6"/>
<path d="M100.374 186.042H90.4648V190.711H100.374V186.042Z" fill="#D6D6D6"/>
<path d="M100.374 217.415H90.4648V222.083H100.374V217.415Z" fill="#D6D6D6"/>
<path d="M100.374 248.795H90.4648V253.464H100.374V248.795Z" fill="#D6D6D6"/>
<path d="M352.749 268.582H10.3516" stroke="#262626" stroke-width="0.733" stroke-miterlimit="10" stroke-linecap="round" stroke-linejoin="round"/>
<path d="M179.334 332.98C278.378 332.98 358.668 319.966 358.668 303.913C358.668 287.86 278.378 274.847 179.334 274.847C80.2906 274.847 0 287.86 0 303.913C0 319.966 80.2906 332.98 179.334 332.98Z" fill="#F5F5F5"/>
<path d="M315.847 299.898L312.509 300.326L294.545 187.816L304.559 186.518L315.847 299.898Z" fill="#D6D6D6"/>
<path d="M207.297 296.133L210.635 296.568L228.607 184.059L218.585 182.761L207.297 296.133Z" fill="#D6D6D6"/>
<path d="M270.478 298.882L267.14 299.318L249.168 186.809L259.19 185.51L270.478 298.882Z" fill="#D6D6D6"/>
<path d="M306.462 210.344H221.697L224.737 183.825H317.549L315.347 202.306C314.88 206.748 310.905 210.344 306.462 210.344Z" fill="#F5F5F5"/>
<path d="M311.05 202.233H258.827C256.529 202.233 254.892 200.37 255.174 198.072L267.309 98.7945C267.591 96.4966 269.679 94.634 271.977 94.634H324.2C326.498 94.634 328.135 96.4966 327.853 98.7945L315.718 198.072C315.444 200.37 313.348 202.233 311.05 202.233Z" fill="#F5F5F5"/>
<path d="M302.704 202.233H250.481C248.183 202.233 246.546 200.37 246.829 198.072L258.963 98.7945C259.245 96.4966 261.334 94.634 263.632 94.634H315.855C318.153 94.634 319.789 96.4966 319.507 98.7945L307.373 198.072C307.09 200.37 305.002 202.233 302.704 202.233Z" fill="#D6D6D6"/>
<path d="M231.75 275.29L226.114 261.736L251.069 251.359L266.566 288.626L210.593 312.96L207.779 306.187L231.75 275.29Z" fill="#F7A99C"/>
<path d="M208.603 313.79L207.265 310.581C205.902 307.3 206.442 303.526 208.684 300.769L227.116 278.064C235.049 277.048 240.443 274.484 243.935 272.283C249.74 268.622 254.529 263.301 257.529 264.841C258.383 265.284 258.827 266.147 259.061 266.768L267.252 286.473C267.825 287.852 267.172 289.44 265.793 290.021L208.603 313.79Z" fill="#FFC001"/>
<path d="M207.707 311.645L267.404 286.82" stroke="#3897E9" stroke-width="0.733" stroke-miterlimit="10" stroke-linecap="round" stroke-linejoin="round"/>
<path d="M215.359 292.948L220.544 295.979" stroke="#3897E9" stroke-width="0.733" stroke-miterlimit="10" stroke-linecap="round" stroke-linejoin="round"/>
<path d="M217.238 290.545L222.415 293.577" stroke="#3897E9" stroke-width="0.733" stroke-miterlimit="10" stroke-linecap="round" stroke-linejoin="round"/>
<path d="M219.262 288.199L224.446 291.23" stroke="#3897E9" stroke-width="0.733" stroke-miterlimit="10" stroke-linecap="round" stroke-linejoin="round"/>
<path d="M222.061 284.288C226.753 284.151 234.26 283.353 242.677 279.797C250.797 276.37 256.465 271.766 259.827 268.582" stroke="#3897E9" stroke-width="0.733" stroke-miterlimit="10" stroke-linecap="round" stroke-linejoin="round"/>
<path d="M149.986 286.264L157.968 270.711L178.456 270.469L176.682 312.291L115.646 312.484L115.743 305.147L149.986 286.264Z" fill="#F7A99C"/>
<path d="M113.494 312.46L113.543 308.977C113.591 305.421 115.582 302.172 118.735 300.527L144.649 286.966C152.341 289.175 158.299 288.949 162.387 288.312C169.168 287.248 175.675 284.256 177.82 286.861C178.432 287.602 178.497 288.57 178.465 289.231L178.191 310.574C178.174 312.073 176.941 313.267 175.449 313.25L113.494 312.46Z" fill="#FFC001"/>
<path d="M113.518 310.138L178.166 310.961" stroke="#3897E9" stroke-width="0.733" stroke-miterlimit="10" stroke-linecap="round" stroke-linejoin="round"/>
<path d="M127.951 295.996L131.507 300.826" stroke="#3897E9" stroke-width="0.733" stroke-miterlimit="10" stroke-linecap="round" stroke-linejoin="round"/>
<path d="M130.619 294.528L134.183 299.366" stroke="#3897E9" stroke-width="0.733" stroke-miterlimit="10" stroke-linecap="round" stroke-linejoin="round"/>
<path d="M133.408 293.174L136.972 298.012" stroke="#3897E9" stroke-width="0.733" stroke-miterlimit="10" stroke-linecap="round" stroke-linejoin="round"/>
<path d="M137.521 290.69C141.883 292.416 149.1 294.657 158.235 294.722C167.048 294.786 174.078 292.803 178.416 291.215" stroke="#3897E9" stroke-width="0.733" stroke-miterlimit="10" stroke-linecap="round" stroke-linejoin="round"/>
<path d="M249.588 156.315C249.588 156.315 192.462 172.981 189.503 177.786C186.544 182.592 187.657 193.13 189.503 199.975C191.35 206.812 218.634 274.855 218.634 274.855L257.723 260.253L230.914 190.187L281.202 164.676L249.588 156.315Z" fill="#FEC02D"/>
<path d="M210.65 256.061C210.65 256.061 226.389 234.823 228.792 232.969C231.195 231.114 243.579 223.075 243.579 223.075L246.796 231.67L213.4 261.737L210.65 256.061Z" fill="#E05C22"/>
<path d="M297.657 171.078C297.657 171.078 300.617 181.963 299.133 185.607C297.657 189.252 231.099 231.034 229.615 233.622C228.139 236.21 187.091 283.128 187.091 283.128L143.826 274.597C143.826 274.597 186.35 218.464 196.702 209.957C207.055 201.451 254.013 160.572 254.013 160.572L297.657 171.078Z" fill="#FEC02D"/>
<path d="M285.807 92.9892L307.834 80.7579C308.866 80.1854 309.02 78.7583 308.133 77.9842L296.288 67.5993L292.394 53.9972C296.442 53.707 309.399 53.2958 320.711 62.1488C323.718 64.4951 334.361 72.824 333.152 82.3221C332.378 88.4256 325.806 93.4488 312.664 103.503C308.858 106.414 305.577 108.696 303.214 110.284L285.807 92.9892Z" fill="#4C62A7"/>
<path d="M293.023 56.174C293.023 56.174 286.419 53.6745 285.306 53.4729C284.194 53.2714 272.857 56.69 272.857 56.69L273.333 59.1734C273.333 59.1734 281.807 59.5523 282.21 59.7862C282.605 60.02 287.669 65.2528 288.725 65.6962C289.781 66.1397 296.022 66.6154 296.022 66.6154L293.023 56.174Z" fill="#F7A99C"/>
<path d="M271.76 91.8281L251.425 76.9521C250.474 76.2506 250.498 74.8235 251.473 74.1624L264.519 65.3335L270.074 52.3201C266.091 51.5299 253.296 49.5061 240.959 56.8836C237.686 58.8429 226.092 65.777 226.1 75.3476C226.108 81.4996 232.002 87.3048 243.79 98.9153C247.2 102.278 250.175 104.954 252.32 106.817L271.76 91.8281Z" fill="#4C62A7"/>
<path d="M269.187 54.4002C269.187 54.4002 276.049 52.7473 277.177 52.6828C278.306 52.6183 289.135 57.4318 289.135 57.4318L288.361 59.8345C288.361 59.8345 279.903 59.1572 279.475 59.3427C279.048 59.5281 273.38 64.0917 272.275 64.3981C271.163 64.7045 264.922 64.3981 264.922 64.3981L269.187 54.4002Z" fill="#F7A99C"/>
<path d="M271.76 91.8281L286.362 92.9327C294.183 96.4965 298.456 100.939 300.738 103.842C303.31 107.107 309.712 116.492 308.261 161.282C308.051 167.796 307.737 173.086 307.519 176.319L233.816 156.323C234.671 153.388 242.935 125.208 251.563 108.276C253.828 103.826 256.965 98.5042 263.028 94.9646C266.439 92.965 269.688 92.1748 271.76 91.8281Z" fill="#4C62A7"/>
<path d="M278.395 99.1171C282.418 99.4961 285.99 96.537 286.369 92.5136L287.845 76.8314L273.275 75.4607L271.8 91.143C271.413 95.1663 274.372 98.7382 278.395 99.1171Z" fill="#F7A99C"/>
<path d="M272.203 86.7568L282.136 82.7334C281.967 83.5477 281.08 87.3454 277.452 89.6997C275.138 91.1994 272.832 91.3848 271.768 91.401L272.203 86.7568Z" fill="#FF7769"/>
<path d="M288.627 72.0098C288.691 71.776 289.353 71.4777 289.554 71.3728C289.893 71.1955 290.264 71.0584 290.643 70.9778C291.376 70.8165 292.158 70.8326 292.876 71.0665C294.303 71.5341 295.48 72.8645 295.585 74.3884C295.65 75.2672 295.367 76.1541 294.924 76.912C294.255 78.057 293.215 78.9842 292.013 79.5405C291.014 80.0001 289.901 80.2178 288.804 80.1775C288.587 80.1694 286.345 79.9195 286.369 79.8308C287.119 77.2184 287.877 74.6141 288.627 72.0098Z" fill="#F7A99C"/>
<path d="M290.611 72.3403C290.337 73.4933 288.748 79.5727 282.79 83.4348C281.693 84.1444 274.396 88.8692 268.398 85.7085C260.689 81.6368 262.746 68.5589 262.866 67.8493C263.278 65.4546 264.479 58.4158 270.695 55.1584C275.767 52.4976 280.863 54.1021 281.588 54.344C282.346 54.594 287.184 56.2872 289.772 61.4152C292.127 66.0594 291.07 70.4456 290.611 72.3403Z" fill="#F7A99C"/>
<path d="M267.421 68.2608C267.203 69.2767 266.34 69.954 265.502 69.7685C264.663 69.5831 264.163 68.6155 264.381 67.5996C264.599 66.5837 265.461 65.9064 266.3 66.0919C267.138 66.2773 267.638 67.2448 267.421 68.2608Z" fill="#262626"/>
<path d="M276.573 70.2603C276.355 71.2762 275.493 71.9535 274.654 71.768C273.816 71.5826 273.316 70.615 273.533 69.5991C273.751 68.5832 274.614 67.9059 275.452 68.0914C276.291 68.2688 276.791 69.2444 276.573 70.2603Z" fill="#262626"/>
<path d="M270.074 70.0505L268.486 71.8405C268.196 72.1711 268.244 72.679 268.599 72.937L269.833 73.8481" stroke="#262626" stroke-width="0.733" stroke-miterlimit="10" stroke-linecap="round" stroke-linejoin="round"/>
<path d="M279.242 75.3798C278.992 76.5167 277.872 77.2424 276.727 76.9924C275.582 76.7425 274.864 75.6217 275.114 74.4768C275.364 73.3399 276.485 72.6143 277.63 72.8642C278.775 73.1142 279.484 74.2349 279.242 75.3798Z" fill="#FF7769"/>
<path d="M289.127 77.3635C289.143 77.1297 289.264 75.5655 290.619 74.5496C291.683 73.7514 292.828 73.7997 293.142 73.8239" stroke="#262626" stroke-width="0.733" stroke-miterlimit="10" stroke-linecap="round" stroke-linejoin="round"/>
<path d="M290.473 74.8477C290.545 74.8396 291.392 74.7993 291.924 75.4927C292.359 76.0571 292.255 76.7022 292.238 76.807" stroke="#262626" stroke-width="0.733" stroke-miterlimit="10" stroke-linecap="round" stroke-linejoin="round"/>
<path d="M290.925 70.9213C290.925 70.9213 289.876 70.9213 289.03 71.6228C288.183 72.3242 287.78 73.6304 287.78 73.6304C286.563 73.5901 284.789 73.3321 283.329 72.1388C281.056 70.2763 281.902 68.0912 280.032 66.6157C278.266 65.2289 276.79 66.5835 270.292 66.2448C265.188 65.9787 263.745 65.0112 263.656 64.342C263.632 64.1243 263.729 63.7212 263.954 62.9229C264.043 62.6165 264.14 62.165 264.333 61.7377C264.704 60.9072 265.164 60.109 265.688 59.3672C266.744 57.8756 268.091 56.5936 269.622 55.6018C270.622 54.9568 271.703 54.4408 272.832 54.078C276.419 52.9169 281.217 53.3523 285.152 55.9244C285.152 55.9244 289.538 58.8028 291.142 63.7937C291.691 65.5111 291.715 67.1801 291.715 67.7606C291.699 68.9056 291.505 69.6312 291.279 70.1876C291.158 70.502 291.021 70.752 290.925 70.9213Z" fill="#262626"/>
<path d="M263.721 70.6229C263.326 70.5342 262.939 70.5745 262.584 70.6954C262.52 71.8323 262.511 73.211 262.624 74.6865C262.689 74.7107 262.753 74.7349 262.826 74.751C263.963 75.001 265.092 74.2753 265.342 73.1385C265.583 72.0016 264.858 70.8728 263.721 70.6229Z" fill="#FF7769"/>
<path d="M271.066 63.2613C269.792 65.7043 266.293 66.3978 263.269 64.8174C260.238 63.229 258.818 59.9636 260.092 57.5205C261.366 55.0775 264.866 54.3841 267.889 55.9644C270.921 57.5528 272.348 60.8182 271.066 63.2613Z" fill="#262626"/>
<path d="M268.293 77.7021C268.607 77.4038 269.333 76.8071 270.446 76.533C271.534 76.2669 272.429 76.4523 272.849 76.5652" stroke="#262626" stroke-width="0.733" stroke-miterlimit="10" stroke-linecap="round" stroke-linejoin="round"/>
<path d="M194.035 212.465L254.031 160.572" stroke="#262626" stroke-width="0.733" stroke-miterlimit="10" stroke-linecap="round" stroke-linejoin="round"/>
<path d="M210.982 255.673C210.982 255.673 227.6 235.315 229.624 233.621C231.648 231.928 243.726 223.656 243.726 223.656" stroke="#262626" stroke-width="0.733" stroke-miterlimit="10" stroke-linecap="round" stroke-linejoin="round"/>
<path d="M299.14 178.101C299.14 178.101 230.88 223.269 227.356 225.736C223.833 228.203 181.043 281.934 181.043 281.934" stroke="black" stroke-width="0.733" stroke-miterlimit="10" stroke-linecap="round" stroke-linejoin="round"/>
<path d="M252.642 262.14L237.557 227.792" stroke="black" stroke-width="0.733" stroke-miterlimit="10" stroke-linecap="round" stroke-linejoin="round"/>
<path d="M296.98 86.7806L312.324 78.4436" stroke="#262626" stroke-width="0.733" stroke-miterlimit="10" stroke-linecap="round" stroke-linejoin="round"/>
<path d="M259.165 82.6124L246.877 73.6304" stroke="#262626" stroke-width="0.733" stroke-miterlimit="10" stroke-linecap="round" stroke-linejoin="round"/>
<path d="M253.02 104.696L245.82 121.136" stroke="#262626" stroke-width="0.733" stroke-miterlimit="10" stroke-linecap="round" stroke-linejoin="round"/>
<path d="M302.664 106.809C302.664 106.809 304.148 109.445 305.01 112.92C305.873 116.396 307.719 129.328 307.719 129.328" stroke="#262626" stroke-width="0.733" stroke-miterlimit="10" stroke-linecap="round" stroke-linejoin="round"/>
<path d="M307.994 132.86L307.518 176.303L248.934 160.411C254.957 161.056 274.219 162.338 291.925 149.865C299.899 144.253 304.962 137.674 307.994 132.86Z" fill="#334A92"/>
<path d="M240.435 60.8506C237.919 62.9308 235.145 64.8175 232.799 67.0832C230.3 69.494 228.445 72.9529 229.655 76.4522C230.13 77.839 230.872 78.9356 232.565 81.0722C234.154 83.0718 235.702 84.5473 236.839 85.531" stroke="white" stroke-width="0.733" stroke-miterlimit="10" stroke-linecap="round" stroke-linejoin="round"/>
<path d="M277.935 103.479C278.754 103.479 279.418 102.815 279.418 101.995C279.418 101.176 278.754 100.512 277.935 100.512C277.115 100.512 276.451 101.176 276.451 101.995C276.451 102.815 277.115 103.479 277.935 103.479Z" fill="white"/>
<path d="M277.573 109.349C278.393 109.349 279.057 108.685 279.057 107.865C279.057 107.046 278.393 106.382 277.573 106.382C276.754 106.382 276.09 107.046 276.09 107.865C276.09 108.685 276.754 109.349 277.573 109.349Z" fill="white"/>
<path d="M276.952 115.912C277.772 115.912 278.436 115.247 278.436 114.428C278.436 113.609 277.772 112.945 276.952 112.945C276.133 112.945 275.469 113.609 275.469 114.428C275.469 115.247 276.133 115.912 276.952 115.912Z" fill="white"/>
<path d="M306.21 186.518H47.5375C42.216 186.518 37.9023 182.205 37.9023 176.883C37.9023 171.562 42.216 167.248 47.5375 167.248H306.218C311.54 167.248 315.853 171.562 315.853 176.883C315.845 182.205 311.532 186.518 306.21 186.518Z" fill="#8B3985"/>
<path d="M310.501 312.113L306.566 312.621L285.369 179.883L297.189 178.351L310.501 312.113Z" fill="#8B3985"/>
<path d="M46.3203 312.113L50.255 312.621L71.4522 179.883L59.6321 178.351L46.3203 312.113Z" fill="#8B3985"/>
<path d="M319.112 101.995L311.283 166.038" stroke="#262626" stroke-width="0.733" stroke-miterlimit="10" stroke-linecap="round" stroke-linejoin="round"/>
<path d="M327.279 103.479L315.201 203.216" stroke="#262626" stroke-width="0.733" stroke-miterlimit="10" stroke-linecap="round" stroke-linejoin="round"/>
<path d="M174.279 171.747H295.593" stroke="white" stroke-width="0.733" stroke-miterlimit="10" stroke-linecap="round" stroke-linejoin="round"/>
<path d="M169.352 171.747H155.549" stroke="white" stroke-width="0.733" stroke-miterlimit="10" stroke-linecap="round" stroke-linejoin="round"/>
<path d="M58.8184 186.518L50.8281 266.832" stroke="#262626" stroke-width="0.733" stroke-miterlimit="10" stroke-linecap="round" stroke-linejoin="round"/>
<path d="M286.426 186.518L298.891 264.559" stroke="#262626" stroke-width="0.733" stroke-miterlimit="10" stroke-linecap="round" stroke-linejoin="round"/>
<path d="M237.798 151.783H167.53C165.031 151.783 162.644 149.751 162.209 147.252L154.122 100.907C153.686 98.4071 155.363 96.3752 157.863 96.3752H228.131C230.63 96.3752 233.017 98.4071 233.452 100.907L241.539 147.252C241.974 149.751 240.297 151.783 237.798 151.783Z" fill="#3849C6"/>
<path d="M233.323 151.783H163.055C160.556 151.783 158.169 149.751 157.734 147.252L149.647 100.907C149.212 98.4071 150.889 96.3752 153.388 96.3752H223.656C226.155 96.3752 228.542 98.4071 228.977 100.907L237.064 147.252C237.5 149.751 235.823 151.783 233.323 151.783Z" fill="#4450E4"/>
<path d="M199.427 167.248H176.125L185.196 127.272C185.462 126.103 186.623 125.16 187.792 125.16H206.869C208.038 125.16 208.772 126.103 208.505 127.272L199.427 167.248Z" fill="#3849C6"/>
<path d="M196.565 167.248H173.264L182.334 127.272C182.6 126.103 183.762 125.16 184.931 125.16H204.007C205.176 125.16 205.902 126.103 205.644 127.272L196.565 167.248Z" fill="#4450E4"/>
<path d="M173.264 167.248L182.334 127.272C182.6 126.103 183.762 125.16 184.931 125.16H204.007" stroke="#262626" stroke-width="0.733" stroke-miterlimit="10" stroke-linecap="round" stroke-linejoin="round"/>
<path d="M268.235 167.248H201.975V165.015C201.975 164.24 202.604 163.612 203.378 163.612H266.84C267.614 163.612 268.243 164.24 268.243 165.015V167.248H268.235Z" fill="#4450E4"/>
<path d="M286.286 45.6196L284.109 44.4747L292.503 25.0835L298.026 27.9781L286.286 45.6196Z" fill="#FDB6D6"/>
<path d="M290.279 48.361L289.086 46.2163L306.719 34.5735L309.759 40.024L290.279 48.361Z" fill="#FDB6D6"/>
<path d="M281.191 42.6041L278.813 43.1927L272.193 23.1242L278.249 21.6165L281.191 42.6041Z" fill="#FDB6D6"/>
<path d="M124.459 156.943C124.814 154.492 125.62 150.888 127.644 146.954C128.765 144.785 130.595 141.221 133.997 138.576C140.544 133.481 148.962 134.843 151.083 135.246C148.704 135.762 143.705 137.198 139.327 141.503C138.142 142.672 135.779 145.043 134.304 148.8C132.933 152.307 132.272 157.185 132.272 157.185L124.459 156.943Z" fill="#94E261"/>
<path d="M131.643 153.686C132.111 151.259 132.538 147.583 131.925 143.212C131.587 140.794 131.022 136.827 128.684 133.206C124.177 126.24 115.783 124.757 113.639 124.442C115.719 125.708 119.968 128.707 122.685 134.222C123.419 135.714 124.87 138.73 125.023 142.769C125.169 146.534 124.185 151.356 124.185 151.356L131.643 153.686Z" fill="#94E261"/>
<path d="M128.733 156.395C128.677 154.315 128.362 151.219 127.064 147.736C126.346 145.808 125.169 142.656 122.589 140.108C117.622 135.206 110.463 135.504 108.648 135.633C110.584 136.294 114.615 137.996 117.848 142.027C118.719 143.115 120.461 145.333 121.315 148.622C122.113 151.686 122.178 155.823 122.178 155.823L128.733 156.395Z" fill="#94E261"/>
<path d="M130.41 157.193C130.442 155.903 130.636 153.992 131.442 151.84C131.886 150.646 132.611 148.695 134.208 147.115C137.28 144.083 141.714 144.269 142.835 144.341C141.634 144.752 139.142 145.8 137.143 148.3C136.602 148.977 135.522 150.348 134.998 152.38C134.506 154.275 134.466 156.839 134.466 156.839L130.41 157.193Z" fill="#94E261"/>
<path d="M108.648 135.633C116.55 137.23 119.872 140.366 121.42 143.035C123.952 147.389 124.46 155.113 124.46 155.113" stroke="#262626" stroke-width="0.274" stroke-miterlimit="10" stroke-linecap="round" stroke-linejoin="round"/>
<path d="M113.889 124.482C116.678 125.635 122.443 128.514 125.91 134.714C128.152 138.721 128.668 142.753 128.99 145.317C129.474 149.106 129.273 152.315 128.99 154.557" stroke="#262626" stroke-width="0.274" stroke-miterlimit="10" stroke-linecap="round" stroke-linejoin="round"/>
<path d="M151.084 135.247C150.334 135.118 142.174 133.884 136.135 140.004C130.668 145.551 131.289 152.711 131.386 153.678" stroke="#262626" stroke-width="0.274" stroke-miterlimit="10" stroke-linecap="round" stroke-linejoin="round"/>
<path d="M142.843 144.341C142.286 144.357 137.868 144.527 135.086 148.268C132.933 151.162 133.159 154.323 133.24 155.105" stroke="#262626" stroke-width="0.274" stroke-miterlimit="10" stroke-linecap="round" stroke-linejoin="round"/>
<path d="M130.377 167.965H126.773C123.443 167.965 120.742 165.264 120.742 161.934V152.799H136.408V161.934C136.4 165.264 133.707 167.965 130.377 167.965Z" fill="#FDB6D6"/>
<path d="M134.674 156.396V160.83C134.674 163.483 132.521 165.636 129.868 165.636H128.57" stroke="white" stroke-width="0.733" stroke-miterlimit="10" stroke-linecap="round" stroke-linejoin="round"/>
<path d="M30.4289 103.213C29.8242 100.358 29.55 98.0121 29.6226 96.1738C29.6871 94.3355 30.1951 92.5617 31.1465 90.8443C31.6867 89.8203 32.3479 88.893 33.138 88.0706C33.9201 87.2482 34.6296 86.4016 35.2585 85.5308C35.8794 84.6681 36.3712 83.7409 36.7179 82.7572C37.0646 81.7735 37.0888 80.5802 36.7905 79.1773C36.2906 76.8068 35.2827 75.2829 33.775 74.6218C32.2672 73.9526 30.6143 73.8155 28.8244 74.1944C26.2604 74.7427 24.6398 75.8312 23.9786 77.4599C23.3094 79.0967 23.1159 81.1446 23.39 83.6199L14.021 85.6034C13.5211 83.2329 13.4485 80.9914 13.8113 78.8951C14.1742 76.7988 14.924 74.9121 16.0689 73.2592C17.2058 71.5982 18.7055 70.1953 20.56 69.0423C22.4144 67.8893 24.5511 67.0588 26.9699 66.5428C32.1947 65.4301 36.5486 65.6236 40.0318 67.1153C43.5069 68.6069 45.7564 71.7433 46.7723 76.5327C47.1029 78.0808 47.2319 79.4676 47.1593 80.7012C47.0868 81.9267 46.8449 83.0797 46.4095 84.1601C45.9822 85.2406 45.3936 86.2887 44.6518 87.3047C43.91 88.3206 43.0473 89.3929 42.0717 90.5056C41.1848 91.5538 40.4833 92.4971 39.9753 93.3357C39.4674 94.1742 39.1287 95.0208 38.9594 95.8674C38.782 96.714 38.7417 97.5687 38.8223 98.4395C38.903 99.3103 39.0562 100.278 39.2819 101.342L30.4289 103.213ZM33.1058 117.29L31.09 107.776L40.8945 105.696L42.9102 115.21L33.1058 117.29Z" fill="#8B3985"/>
</svg>
